<svg width="52" height="52" viewBox="0 0 52 52" fill="none" xmlns="http://www.w3.org/2000/svg">
<path d="M46.2222 0H5.77778C4.24542 0 2.77582 0.608728 1.69227 1.69227C0.608728 2.77582 0 4.24542 0 5.77778V46.2222C0 47.7546 0.608728 49.2242 1.69227 50.3077C2.77582 51.3913 4.24542 52 5.77778 52H46.2222C47.7546 52 49.2242 51.3913 50.3077 50.3077C51.3913 49.2242 52 47.7546 52 46.2222V5.77778C52 4.24542 51.3913 2.77582 50.3077 1.69227C49.2242 0.608728 47.7546 0 46.2222 0ZM46.2222 46.2222H5.77778V5.77778H46.2222V46.2222ZM17.3333 40.4444H11.5556V26H17.3333V40.4444ZM28.8889 40.4444H23.1111V20.2222H28.8889V40.4444ZM40.4444 40.4444H34.6667V11.5556H40.4444V40.4444Z" fill="url(#paint0_linear_27_59)"/>
<defs>
<linearGradient id="paint0_linear_27_59" x1="1.73967" y1="-1.84493e-07" x2="50.2603" y2="52" gradientUnits="userSpaceOnUse">
<stop stop-color="#58B7FF"/>
<stop offset="1" stop-color="#35FF5A"/>
</linearGradient>
</defs>
</svg>
