<svg width="58" height="52" viewBox="0 0 58 52" fill="none" xmlns="http://www.w3.org/2000/svg">
<path d="M52.0344 3.43053C50.3446 1.98427 48.3381 0.956183 46.1772 0.429494C44.0163 -0.0971945 41.7618 -0.107688 39.5961 0.398864C35.2421 1.3522 31.4368 3.97729 28.9994 7.70886C26.5754 3.98939 22.7925 1.36576 18.4594 0.398864C16.3034 -0.119002 14.0571 -0.132772 11.8949 0.358626C9.73279 0.850023 7.71307 1.83335 5.99272 3.2322C1.51606 7.1422 -0.948945 15.8122 1.85606 24.5955C2.17339 25.5664 2.55117 26.5109 2.98939 27.4289C3.10272 27.6423 3.20661 27.8595 3.30106 28.0805C10.5827 42.9272 27.4127 50.7472 28.1494 51.1155C28.4231 51.2481 28.7236 51.316 29.0277 51.3139C29.3318 51.316 29.6324 51.2481 29.9061 51.1155C30.6144 50.8039 47.6144 43.0405 54.8394 28.0239L55.0661 27.5422C55.5137 26.5789 55.9009 25.5872 56.2277 24.5672C58.8911 16.0672 56.4544 7.3972 52.0344 3.43053ZM51.1561 25.8989C50.7594 26.7885 50.3061 27.648 49.7961 28.4772H40.4177C39.9511 28.4748 39.4922 28.3571 39.0819 28.1347C38.6717 27.9123 38.3227 27.592 38.0661 27.2022L35.0911 22.7822L28.7727 35.4189C28.5732 35.819 28.2817 36.1662 27.9222 36.4322C27.5627 36.6981 27.1454 36.8751 26.7044 36.9489H26.2511C25.8762 36.9473 25.5054 36.8714 25.16 36.7255C24.8147 36.5796 24.5018 36.3666 24.2394 36.0989L16.5611 28.4489H8.31606C7.79472 27.5309 7.3225 26.5864 6.89939 25.6155C6.46082 24.7033 6.10063 23.7555 5.82272 22.7822H17.7511C18.1239 22.78 18.4936 22.8515 18.8388 22.9925C19.184 23.1335 19.498 23.3413 19.7627 23.6039L25.4294 29.2705L32.1727 15.7839C32.3968 15.3373 32.735 14.958 33.153 14.6843C33.5709 14.4107 34.0538 14.2524 34.5527 14.2255C35.0452 14.1958 35.5369 14.2952 35.9792 14.5138C36.4215 14.7325 36.799 15.0628 37.0744 15.4722L41.8911 22.7255H52.3744C52.0646 23.8211 51.6585 24.8789 51.1561 25.8989Z" fill="#36BCFF"/>
</svg>
