<svg width="168" height="34" viewBox="0 0 168 34" fill="none" xmlns="http://www.w3.org/2000/svg">
<path d="M9.42491 27.152C8.91291 27.152 8.37691 27.024 7.81691 26.768C7.27291 26.528 6.80891 26.128 6.42491 25.568C6.05691 24.992 5.87291 24.232 5.87291 23.288C5.87291 22.184 5.96891 21.016 6.16091 19.784C6.35291 18.552 6.60091 17.32 6.90491 16.088C7.22491 14.84 7.57691 13.656 7.96091 12.536C8.34491 11.416 8.72891 10.416 9.11291 9.536C9.51291 8.656 9.88091 7.968 10.2169 7.472C10.5529 6.96 10.8329 6.704 11.0569 6.704C11.3609 6.704 11.6169 6.824 11.8249 7.064C12.0489 7.304 12.1609 7.64 12.1609 8.072C12.1609 8.248 12.0569 8.664 11.8489 9.32C11.6409 9.96 11.3769 10.768 11.0569 11.744C10.7369 12.72 10.3929 13.776 10.0249 14.912C9.67291 16.048 9.33691 17.192 9.01691 18.344C8.69691 19.496 8.43291 20.584 8.22491 21.608C8.01691 22.632 7.91291 23.504 7.91291 24.224C7.91291 24.432 7.96891 24.632 8.08091 24.824C8.19291 25 8.37691 25.088 8.63291 25.088C8.98491 25.088 9.48891 25.008 10.1449 24.848C10.8169 24.688 11.5449 24.496 12.3289 24.272C13.1129 24.032 13.8649 23.8 14.5849 23.576C15.3049 23.352 15.9129 23.16 16.4089 23C16.9049 22.84 17.1849 22.76 17.2489 22.76C17.4409 22.76 17.6009 22.816 17.7289 22.928C17.8569 23.024 17.9209 23.176 17.9209 23.384C17.9209 23.64 17.7289 23.936 17.3449 24.272C16.9769 24.608 16.4809 24.944 15.8569 25.28C15.2489 25.616 14.5689 25.92 13.8169 26.192C13.0649 26.48 12.3049 26.712 11.5369 26.888C10.7849 27.064 10.0809 27.152 9.42491 27.152ZM30.3225 15.656C30.3225 16.168 30.1625 16.672 29.8425 17.168C29.5225 17.648 29.0985 18.112 28.5705 18.56C28.0425 18.992 27.4585 19.4 26.8185 19.784C26.1785 20.168 25.5385 20.504 24.8985 20.792C24.2585 21.08 23.6745 21.312 23.1465 21.488C23.0185 22.112 22.9545 22.664 22.9545 23.144C22.9545 23.448 23.0265 23.664 23.1705 23.792C23.3145 23.92 23.5385 23.984 23.8425 23.984C24.5145 23.984 25.2265 23.864 25.9785 23.624C26.7305 23.384 27.4985 23.072 28.2825 22.688C29.0665 22.304 29.8185 21.896 30.5385 21.464C31.2585 21.032 31.9145 20.624 32.5065 20.24C33.1145 19.856 33.6185 19.544 34.0185 19.304C34.4185 19.064 34.6825 18.944 34.8105 18.944C35.0025 18.944 35.1465 19.008 35.2425 19.136C35.3545 19.248 35.4105 19.384 35.4105 19.544C35.4105 19.672 35.2105 19.92 34.8105 20.288C34.4265 20.656 33.9065 21.088 33.2505 21.584C32.5945 22.064 31.8585 22.56 31.0425 23.072C30.2265 23.584 29.3785 24.064 28.4985 24.512C27.6345 24.96 26.7945 25.32 25.9785 25.592C25.1785 25.864 24.4585 26 23.8185 26C22.9865 26 22.3385 25.688 21.8745 25.064C21.4105 24.44 21.1785 23.472 21.1785 22.16C21.1785 21.28 21.2905 20.392 21.5145 19.496C21.7545 18.6 22.0745 17.744 22.4745 16.928C22.8905 16.096 23.3465 15.36 23.8425 14.72C24.3545 14.064 24.8905 13.552 25.4505 13.184C26.0105 12.8 26.5545 12.608 27.0825 12.608C28.0905 12.608 28.8825 12.888 29.4585 13.448C30.0345 14.008 30.3225 14.744 30.3225 15.656ZM23.6505 19.64C24.1465 19.336 24.6585 19.016 25.1865 18.68C25.7145 18.344 26.2025 18 26.6505 17.648C27.0985 17.296 27.4585 16.928 27.7305 16.544C28.0185 16.144 28.1625 15.736 28.1625 15.32C28.1625 14.728 27.8425 14.432 27.2025 14.432C26.8025 14.432 26.3785 14.688 25.9305 15.2C25.4985 15.696 25.0825 16.344 24.6825 17.144C24.2825 17.944 23.9385 18.776 23.6505 19.64ZM36.8346 25.4C36.5946 25.4 36.3546 25.224 36.1146 24.872C35.8906 24.52 35.7226 24.024 35.6106 23.384C35.4986 22.712 35.3946 21.944 35.2986 21.08C35.2026 20.216 35.1226 19.368 35.0586 18.536C34.9946 17.704 34.9466 16.968 34.9146 16.328C34.8826 15.688 34.8666 15.256 34.8666 15.032C34.8666 14.2 34.9946 13.584 35.2506 13.184C35.5226 12.768 35.8666 12.56 36.2826 12.56C36.5706 12.56 36.7786 12.64 36.9066 12.8C37.0346 12.944 37.0986 13.28 37.0986 13.808C37.0986 14.16 37.1066 14.616 37.1226 15.176C37.1386 15.736 37.1626 16.344 37.1946 17C37.2266 17.784 37.2586 18.616 37.2906 19.496C37.3226 20.36 37.3466 21.216 37.3626 22.064C37.7466 21.424 38.1866 20.712 38.6826 19.928C39.1946 19.144 39.7146 18.344 40.2426 17.528C40.7706 16.696 41.2826 15.904 41.7786 15.152C42.2746 14.4 42.7146 13.744 43.0986 13.184C43.4826 12.624 43.7786 12.216 43.9866 11.96C44.2586 11.64 44.5066 11.416 44.7306 11.288C44.9706 11.16 45.1786 11.096 45.3546 11.096C45.5946 11.096 45.7866 11.184 45.9306 11.36C46.0906 11.536 46.1706 11.784 46.1706 12.104C46.1706 12.296 46.1306 12.512 46.0506 12.752C45.9866 12.976 45.8666 13.208 45.6906 13.448C45.2586 14.104 44.7386 14.872 44.1306 15.752C43.5226 16.632 42.8906 17.544 42.2346 18.488C41.5786 19.432 40.9386 20.352 40.3146 21.248C39.6906 22.128 39.1466 22.904 38.6826 23.576C37.8666 24.792 37.2506 25.4 36.8346 25.4ZM56.221 15.656C56.221 16.168 56.061 16.672 55.741 17.168C55.421 17.648 54.997 18.112 54.469 18.56C53.941 18.992 53.357 19.4 52.717 19.784C52.077 20.168 51.437 20.504 50.797 20.792C50.157 21.08 49.573 21.312 49.045 21.488C48.917 22.112 48.853 22.664 48.853 23.144C48.853 23.448 48.925 23.664 49.069 23.792C49.213 23.92 49.437 23.984 49.741 23.984C50.413 23.984 51.125 23.864 51.877 23.624C52.629 23.384 53.397 23.072 54.181 22.688C54.965 22.304 55.717 21.896 56.437 21.464C57.157 21.032 57.813 20.624 58.405 20.24C59.013 19.856 59.517 19.544 59.917 19.304C60.317 19.064 60.581 18.944 60.709 18.944C60.901 18.944 61.045 19.008 61.141 19.136C61.253 19.248 61.309 19.384 61.309 19.544C61.309 19.672 61.109 19.92 60.709 20.288C60.325 20.656 59.805 21.088 59.149 21.584C58.493 22.064 57.757 22.56 56.941 23.072C56.125 23.584 55.277 24.064 54.397 24.512C53.533 24.96 52.693 25.32 51.877 25.592C51.077 25.864 50.357 26 49.717 26C48.885 26 48.237 25.688 47.773 25.064C47.309 24.44 47.077 23.472 47.077 22.16C47.077 21.28 47.189 20.392 47.413 19.496C47.653 18.6 47.973 17.744 48.373 16.928C48.789 16.096 49.245 15.36 49.741 14.72C50.253 14.064 50.789 13.552 51.349 13.184C51.909 12.8 52.453 12.608 52.981 12.608C53.989 12.608 54.781 12.888 55.357 13.448C55.933 14.008 56.221 14.744 56.221 15.656ZM49.549 19.64C50.045 19.336 50.557 19.016 51.085 18.68C51.613 18.344 52.101 18 52.549 17.648C52.997 17.296 53.357 16.928 53.629 16.544C53.917 16.144 54.061 15.736 54.061 15.32C54.061 14.728 53.741 14.432 53.101 14.432C52.701 14.432 52.277 14.688 51.829 15.2C51.397 15.696 50.981 16.344 50.581 17.144C50.181 17.944 49.837 18.776 49.549 19.64ZM64.125 26.96C62.893 26.96 61.925 26.56 61.221 25.76C60.533 24.944 60.189 23.808 60.189 22.352C60.189 21.456 60.309 20.408 60.549 19.208C60.805 17.992 61.125 16.712 61.509 15.368C61.909 14.008 62.341 12.664 62.805 11.336C63.269 10.008 63.717 8.776 64.149 7.64C64.597 6.488 64.989 5.528 65.325 4.76C65.517 4.328 65.789 4.112 66.141 4.112C66.621 4.112 66.861 4.408 66.861 5C66.861 5.192 66.773 5.584 66.597 6.176C66.421 6.768 66.189 7.504 65.901 8.384C65.613 9.248 65.301 10.208 64.965 11.264C64.629 12.32 64.285 13.408 63.933 14.528C63.597 15.632 63.285 16.728 62.997 17.816C62.709 18.888 62.477 19.896 62.301 20.84C62.125 21.784 62.037 22.592 62.037 23.264C62.037 23.696 62.149 24.04 62.373 24.296C62.613 24.536 62.933 24.656 63.333 24.656C64.069 24.656 64.805 24.512 65.541 24.224C66.293 23.92 67.013 23.552 67.701 23.12C68.389 22.672 69.013 22.232 69.573 21.8C70.149 21.352 70.637 20.984 71.037 20.696C71.437 20.392 71.717 20.24 71.877 20.24C72.229 20.24 72.405 20.432 72.405 20.816C72.405 20.944 72.277 21.184 72.021 21.536C71.765 21.872 71.421 22.272 70.989 22.736C70.557 23.2 70.053 23.68 69.477 24.176C68.917 24.656 68.325 25.112 67.701 25.544C67.093 25.96 66.477 26.296 65.853 26.552C65.245 26.824 64.669 26.96 64.125 26.96ZM87.5205 10.328C87.5205 11.368 87.4565 12.472 87.3285 13.64C87.2005 14.808 86.9925 15.984 86.7045 17.168C86.4165 18.336 86.0405 19.448 85.5765 20.504C85.1285 21.544 84.5765 22.48 83.9205 23.312C83.2645 24.128 82.4965 24.776 81.6165 25.256C80.7525 25.736 79.7605 25.976 78.6405 25.976C77.1045 25.976 75.8885 25.488 74.9925 24.512C74.0965 23.536 73.6485 22.072 73.6485 20.12C73.6485 19.016 73.7605 17.936 73.9845 16.88C74.2085 15.808 74.4725 14.832 74.7765 13.952C75.0805 13.072 75.3445 12.344 75.5685 11.768C75.5045 11.64 75.4725 11.488 75.4725 11.312C75.4725 10.832 75.5845 10.384 75.8085 9.968C76.0325 9.536 76.3045 9.184 76.6245 8.912C76.9605 8.64 77.2805 8.504 77.5845 8.504C77.8245 8.504 78.0165 8.592 78.1605 8.768C78.3205 8.944 78.4005 9.216 78.4005 9.584C78.4005 9.984 78.2645 10.528 77.9925 11.216C77.7365 11.904 77.4405 12.72 77.1045 13.664C76.7685 14.592 76.4645 15.64 76.1925 16.808C75.9365 17.96 75.8085 19.2 75.8085 20.528C75.8085 21.552 76.0805 22.336 76.6245 22.88C77.1685 23.408 77.9765 23.672 79.0485 23.672C79.9285 23.672 80.6965 23.392 81.3525 22.832C82.0085 22.272 82.5605 21.512 83.0085 20.552C83.4725 19.576 83.8485 18.472 84.1365 17.24C84.4405 16.008 84.6725 14.72 84.8325 13.376C85.0085 12.032 85.1365 10.712 85.2165 9.416C85.2485 9 85.3685 8.696 85.5765 8.504C85.8005 8.296 86.0725 8.192 86.3925 8.192C86.6325 8.192 86.8325 8.24 86.9925 8.336C87.1685 8.416 87.2965 8.608 87.3765 8.912C87.4725 9.216 87.5205 9.688 87.5205 10.328ZM91.098 33.128C90.826 33.128 90.61 33.032 90.45 32.84C90.306 32.648 90.234 32.28 90.234 31.736C90.234 30.952 90.29 30.04 90.402 29C90.514 27.96 90.666 26.856 90.858 25.688C91.066 24.52 91.29 23.352 91.53 22.184C91.786 21.016 92.05 19.904 92.322 18.848C92.61 17.792 92.89 16.856 93.162 16.04C93.434 15.208 93.682 14.552 93.906 14.072C94.146 13.592 94.354 13.352 94.53 13.352C94.834 13.352 95.074 13.44 95.25 13.616C95.442 13.792 95.538 14.056 95.538 14.408C95.538 14.856 95.402 15.584 95.13 16.592C94.858 17.584 94.506 18.88 94.074 20.48C94.474 19.744 94.906 18.976 95.37 18.176C95.834 17.376 96.322 16.6 96.834 15.848C97.346 15.08 97.858 14.392 98.37 13.784C98.898 13.176 99.41 12.688 99.906 12.32C100.402 11.952 100.882 11.768 101.346 11.768C101.842 11.768 102.282 11.928 102.666 12.248C103.05 12.552 103.346 12.968 103.554 13.496C103.778 14.008 103.89 14.584 103.89 15.224C103.89 16.552 103.666 17.84 103.218 19.088C102.77 20.32 102.146 21.432 101.346 22.424C100.562 23.4 99.634 24.176 98.562 24.752C97.506 25.328 96.362 25.616 95.13 25.616C94.666 25.616 94.25 25.592 93.882 25.544C93.514 25.496 93.194 25.44 92.922 25.376C92.73 26.432 92.546 27.52 92.37 28.64C92.194 29.76 92.018 30.952 91.842 32.216C91.794 32.552 91.714 32.784 91.602 32.912C91.49 33.056 91.322 33.128 91.098 33.128ZM101.778 13.592C101.442 13.592 101.042 13.784 100.578 14.168C100.13 14.552 99.642 15.064 99.114 15.704C98.602 16.328 98.082 17.024 97.554 17.792C97.026 18.544 96.514 19.312 96.018 20.096C95.522 20.88 95.066 21.608 94.65 22.28C94.25 22.952 93.922 23.512 93.666 23.96C94.914 23.928 96.01 23.68 96.954 23.216C97.898 22.736 98.706 22.128 99.378 21.392C100.05 20.64 100.594 19.832 101.01 18.968C101.442 18.088 101.754 17.24 101.946 16.424C102.138 15.592 102.234 14.872 102.234 14.264C102.234 13.816 102.082 13.592 101.778 13.592ZM108.322 17.6C107.89 17.6 107.506 17.504 107.17 17.312C106.85 17.104 106.69 16.88 106.69 16.64C106.69 16.496 106.938 16.336 107.434 16.16C107.946 15.968 108.61 15.784 109.426 15.608C110.242 15.432 111.13 15.288 112.09 15.176C113.066 15.064 114.018 15.008 114.946 15.008C115.746 15.008 116.298 15.112 116.602 15.32C116.906 15.512 117.058 15.728 117.058 15.968C117.058 16.16 116.778 16.36 116.218 16.568C115.674 16.76 114.962 16.936 114.082 17.096C113.218 17.24 112.274 17.36 111.25 17.456C110.242 17.552 109.266 17.6 108.322 17.6ZM124.292 27.152C123.78 27.152 123.244 27.024 122.684 26.768C122.14 26.528 121.676 26.128 121.292 25.568C120.924 24.992 120.74 24.232 120.74 23.288C120.74 22.184 120.836 21.016 121.028 19.784C121.22 18.552 121.468 17.32 121.772 16.088C122.092 14.84 122.444 13.656 122.828 12.536C123.212 11.416 123.596 10.416 123.98 9.536C124.38 8.656 124.748 7.968 125.084 7.472C125.42 6.96 125.7 6.704 125.924 6.704C126.228 6.704 126.484 6.824 126.692 7.064C126.916 7.304 127.028 7.64 127.028 8.072C127.028 8.248 126.924 8.664 126.716 9.32C126.508 9.96 126.244 10.768 125.924 11.744C125.604 12.72 125.26 13.776 124.892 14.912C124.54 16.048 124.204 17.192 123.884 18.344C123.564 19.496 123.3 20.584 123.092 21.608C122.884 22.632 122.78 23.504 122.78 24.224C122.78 24.432 122.836 24.632 122.948 24.824C123.06 25 123.244 25.088 123.5 25.088C123.852 25.088 124.356 25.008 125.012 24.848C125.684 24.688 126.412 24.496 127.196 24.272C127.98 24.032 128.732 23.8 129.452 23.576C130.172 23.352 130.78 23.16 131.276 23C131.772 22.84 132.052 22.76 132.116 22.76C132.308 22.76 132.468 22.816 132.596 22.928C132.724 23.024 132.788 23.176 132.788 23.384C132.788 23.64 132.596 23.936 132.212 24.272C131.844 24.608 131.348 24.944 130.724 25.28C130.116 25.616 129.436 25.92 128.684 26.192C127.932 26.48 127.172 26.712 126.404 26.888C125.652 27.064 124.948 27.152 124.292 27.152ZM136.364 26.12C136.06 26.12 135.788 26.008 135.548 25.784C135.308 25.544 135.188 25.176 135.188 24.68C135.188 24.328 135.236 23.84 135.332 23.216C135.428 22.576 135.556 21.88 135.716 21.128C135.876 20.376 136.044 19.632 136.22 18.896C136.412 18.144 136.604 17.472 136.796 16.88C136.988 16.288 137.156 15.848 137.3 15.56C137.428 15.336 137.548 15.192 137.66 15.128C137.788 15.064 137.908 15.032 138.02 15.032C138.244 15.032 138.436 15.104 138.596 15.248C138.772 15.392 138.86 15.672 138.86 16.088C138.86 16.328 138.812 16.728 138.716 17.288C138.636 17.832 138.524 18.472 138.38 19.208C138.252 19.928 138.108 20.672 137.948 21.44C137.804 22.192 137.66 22.912 137.516 23.6C137.372 24.288 137.26 24.864 137.18 25.328C137.116 25.584 137.004 25.784 136.844 25.928C136.7 26.056 136.54 26.12 136.364 26.12ZM138.716 12.848C138.348 12.848 137.996 12.736 137.66 12.512C137.34 12.288 137.18 11.928 137.18 11.432C137.18 11.016 137.276 10.68 137.468 10.424C137.676 10.168 137.916 9.984 138.188 9.872C138.476 9.744 138.724 9.68 138.932 9.68C139.14 9.68 139.372 9.728 139.628 9.824C139.9 9.904 140.132 10.064 140.324 10.304C140.516 10.528 140.612 10.864 140.612 11.312C140.612 11.616 140.508 11.888 140.3 12.128C140.092 12.352 139.836 12.528 139.532 12.656C139.244 12.784 138.972 12.848 138.716 12.848ZM144.209 28.136C143.937 28.136 143.721 28.04 143.561 27.848C143.401 27.656 143.321 27.336 143.321 26.888C143.321 26.088 143.361 25.264 143.441 24.416C143.537 23.552 143.585 22.752 143.585 22.016C143.585 20.336 143.433 18.952 143.129 17.864C142.841 16.76 142.209 16.016 141.233 15.632C141.009 15.552 140.849 15.464 140.753 15.368C140.641 15.272 140.585 15.12 140.585 14.912C140.585 14.688 140.673 14.504 140.849 14.36C141.009 14.216 141.313 14.144 141.761 14.144C142.129 14.144 142.617 14.16 143.225 14.192C143.833 14.224 144.489 14.256 145.193 14.288C145.689 12.512 146.249 11.04 146.873 9.872C147.497 8.704 148.177 7.784 148.913 7.112C149.665 6.44 150.457 5.96 151.289 5.672C152.137 5.384 153.017 5.24 153.929 5.24C154.329 5.24 154.585 5.296 154.697 5.408C154.809 5.504 154.865 5.656 154.865 5.864C154.865 6.12 154.785 6.392 154.625 6.68C154.465 6.952 154.137 7.128 153.641 7.208C152.553 7.4 151.585 7.752 150.737 8.264C149.889 8.776 149.153 9.52 148.529 10.496C147.905 11.456 147.385 12.72 146.969 14.288C148.505 14.256 149.825 14.176 150.929 14.048C152.033 13.904 152.953 13.752 153.689 13.592C154.441 13.416 155.041 13.272 155.489 13.16C155.937 13.032 156.281 12.968 156.521 12.968C156.793 12.968 156.961 13.04 157.025 13.184C157.089 13.328 157.121 13.48 157.121 13.64C157.121 13.944 156.833 14.24 156.257 14.528C155.681 14.8 154.921 15.048 153.977 15.272C153.049 15.48 152.025 15.648 150.905 15.776C149.785 15.904 148.681 15.968 147.593 15.968C147.417 15.968 147.241 15.968 147.065 15.968C146.905 15.968 146.737 15.968 146.561 15.968C146.529 16.08 146.505 16.2 146.489 16.328C146.329 17.256 146.169 18.24 146.009 19.28C145.865 20.304 145.729 21.312 145.601 22.304C145.489 23.28 145.401 24.168 145.337 24.968C145.273 25.768 145.241 26.408 145.241 26.888C145.241 27.288 145.145 27.592 144.953 27.8C144.761 28.024 144.513 28.136 144.209 28.136ZM144.785 15.872C144.321 15.824 143.889 15.76 143.489 15.68C143.697 15.92 143.873 16.2 144.017 16.52C144.177 16.84 144.313 17.184 144.425 17.552C144.537 16.96 144.657 16.4 144.785 15.872ZM162.862 15.656C162.862 16.168 162.702 16.672 162.382 17.168C162.062 17.648 161.638 18.112 161.11 18.56C160.582 18.992 159.998 19.4 159.358 19.784C158.718 20.168 158.078 20.504 157.438 20.792C156.798 21.08 156.214 21.312 155.686 21.488C155.558 22.112 155.494 22.664 155.494 23.144C155.494 23.448 155.566 23.664 155.71 23.792C155.854 23.92 156.078 23.984 156.382 23.984C157.054 23.984 157.766 23.864 158.518 23.624C159.27 23.384 160.038 23.072 160.822 22.688C161.606 22.304 162.358 21.896 163.078 21.464C163.798 21.032 164.454 20.624 165.046 20.24C165.654 19.856 166.158 19.544 166.558 19.304C166.958 19.064 167.222 18.944 167.35 18.944C167.542 18.944 167.686 19.008 167.782 19.136C167.894 19.248 167.95 19.384 167.95 19.544C167.95 19.672 167.75 19.92 167.35 20.288C166.966 20.656 166.446 21.088 165.79 21.584C165.134 22.064 164.398 22.56 163.582 23.072C162.766 23.584 161.918 24.064 161.038 24.512C160.174 24.96 159.334 25.32 158.518 25.592C157.718 25.864 156.998 26 156.358 26C155.526 26 154.878 25.688 154.414 25.064C153.95 24.44 153.718 23.472 153.718 22.16C153.718 21.28 153.83 20.392 154.054 19.496C154.294 18.6 154.614 17.744 155.014 16.928C155.43 16.096 155.886 15.36 156.382 14.72C156.894 14.064 157.43 13.552 157.99 13.184C158.55 12.8 159.094 12.608 159.622 12.608C160.63 12.608 161.422 12.888 161.998 13.448C162.574 14.008 162.862 14.744 162.862 15.656ZM156.19 19.64C156.686 19.336 157.198 19.016 157.726 18.68C158.254 18.344 158.742 18 159.19 17.648C159.638 17.296 159.998 16.928 160.27 16.544C160.558 16.144 160.702 15.736 160.702 15.32C160.702 14.728 160.382 14.432 159.742 14.432C159.342 14.432 158.918 14.688 158.47 15.2C158.038 15.696 157.622 16.344 157.222 17.144C156.822 17.944 156.478 18.776 156.19 19.64Z" fill="black"/>
<path d="M7.42491 26.152C6.91291 26.152 6.37691 26.024 5.81691 25.768C5.27291 25.528 4.80891 25.128 4.42491 24.568C4.05691 23.992 3.87291 23.232 3.87291 22.288C3.87291 21.184 3.96891 20.016 4.16091 18.784C4.35291 17.552 4.60091 16.32 4.90491 15.088C5.22491 13.84 5.57691 12.656 5.96091 11.536C6.34491 10.416 6.72891 9.416 7.11291 8.536C7.51291 7.656 7.88091 6.968 8.21691 6.472C8.55291 5.96 8.83291 5.704 9.05691 5.704C9.36091 5.704 9.61691 5.824 9.82491 6.064C10.0489 6.304 10.1609 6.64 10.1609 7.072C10.1609 7.248 10.0569 7.664 9.84891 8.32C9.64091 8.96 9.37691 9.768 9.05691 10.744C8.73691 11.72 8.39291 12.776 8.02491 13.912C7.67291 15.048 7.33691 16.192 7.01691 17.344C6.69691 18.496 6.43291 19.584 6.22491 20.608C6.01691 21.632 5.91291 22.504 5.91291 23.224C5.91291 23.432 5.96891 23.632 6.08091 23.824C6.19291 24 6.37691 24.088 6.63291 24.088C6.98491 24.088 7.48891 24.008 8.14491 23.848C8.81691 23.688 9.54491 23.496 10.3289 23.272C11.1129 23.032 11.8649 22.8 12.5849 22.576C13.3049 22.352 13.9129 22.16 14.4089 22C14.9049 21.84 15.1849 21.76 15.2489 21.76C15.4409 21.76 15.6009 21.816 15.7289 21.928C15.8569 22.024 15.9209 22.176 15.9209 22.384C15.9209 22.64 15.7289 22.936 15.3449 23.272C14.9769 23.608 14.4809 23.944 13.8569 24.28C13.2489 24.616 12.5689 24.92 11.8169 25.192C11.0649 25.48 10.3049 25.712 9.53691 25.888C8.78491 26.064 8.08091 26.152 7.42491 26.152ZM28.3225 14.656C28.3225 15.168 28.1625 15.672 27.8425 16.168C27.5225 16.648 27.0985 17.112 26.5705 17.56C26.0425 17.992 25.4585 18.4 24.8185 18.784C24.1785 19.168 23.5385 19.504 22.8985 19.792C22.2585 20.08 21.6745 20.312 21.1465 20.488C21.0185 21.112 20.9545 21.664 20.9545 22.144C20.9545 22.448 21.0265 22.664 21.1705 22.792C21.3145 22.92 21.5385 22.984 21.8425 22.984C22.5145 22.984 23.2265 22.864 23.9785 22.624C24.7305 22.384 25.4985 22.072 26.2825 21.688C27.0665 21.304 27.8185 20.896 28.5385 20.464C29.2585 20.032 29.9145 19.624 30.5065 19.24C31.1145 18.856 31.6185 18.544 32.0185 18.304C32.4185 18.064 32.6825 17.944 32.8105 17.944C33.0025 17.944 33.1465 18.008 33.2425 18.136C33.3545 18.248 33.4105 18.384 33.4105 18.544C33.4105 18.672 33.2105 18.92 32.8105 19.288C32.4265 19.656 31.9065 20.088 31.2505 20.584C30.5945 21.064 29.8585 21.56 29.0425 22.072C28.2265 22.584 27.3785 23.064 26.4985 23.512C25.6345 23.96 24.7945 24.32 23.9785 24.592C23.1785 24.864 22.4585 25 21.8185 25C20.9865 25 20.3385 24.688 19.8745 24.064C19.4105 23.44 19.1785 22.472 19.1785 21.16C19.1785 20.28 19.2905 19.392 19.5145 18.496C19.7545 17.6 20.0745 16.744 20.4745 15.928C20.8905 15.096 21.3465 14.36 21.8425 13.72C22.3545 13.064 22.8905 12.552 23.4505 12.184C24.0105 11.8 24.5545 11.608 25.0825 11.608C26.0905 11.608 26.8825 11.888 27.4585 12.448C28.0345 13.008 28.3225 13.744 28.3225 14.656ZM21.6505 18.64C22.1465 18.336 22.6585 18.016 23.1865 17.68C23.7145 17.344 24.2025 17 24.6505 16.648C25.0985 16.296 25.4585 15.928 25.7305 15.544C26.0185 15.144 26.1625 14.736 26.1625 14.32C26.1625 13.728 25.8425 13.432 25.2025 13.432C24.8025 13.432 24.3785 13.688 23.9305 14.2C23.4985 14.696 23.0825 15.344 22.6825 16.144C22.2825 16.944 21.9385 17.776 21.6505 18.64ZM34.8346 24.4C34.5946 24.4 34.3546 24.224 34.1146 23.872C33.8906 23.52 33.7226 23.024 33.6106 22.384C33.4986 21.712 33.3946 20.944 33.2986 20.08C33.2026 19.216 33.1226 18.368 33.0586 17.536C32.9946 16.704 32.9466 15.968 32.9146 15.328C32.8826 14.688 32.8666 14.256 32.8666 14.032C32.8666 13.2 32.9946 12.584 33.2506 12.184C33.5226 11.768 33.8666 11.56 34.2826 11.56C34.5706 11.56 34.7786 11.64 34.9066 11.8C35.0346 11.944 35.0986 12.28 35.0986 12.808C35.0986 13.16 35.1066 13.616 35.1226 14.176C35.1386 14.736 35.1626 15.344 35.1946 16C35.2266 16.784 35.2586 17.616 35.2906 18.496C35.3226 19.36 35.3466 20.216 35.3626 21.064C35.7466 20.424 36.1866 19.712 36.6826 18.928C37.1946 18.144 37.7146 17.344 38.2426 16.528C38.7706 15.696 39.2826 14.904 39.7786 14.152C40.2746 13.4 40.7146 12.744 41.0986 12.184C41.4826 11.624 41.7786 11.216 41.9866 10.96C42.2586 10.64 42.5066 10.416 42.7306 10.288C42.9706 10.16 43.1786 10.096 43.3546 10.096C43.5946 10.096 43.7866 10.184 43.9306 10.36C44.0906 10.536 44.1706 10.784 44.1706 11.104C44.1706 11.296 44.1306 11.512 44.0506 11.752C43.9866 11.976 43.8666 12.208 43.6906 12.448C43.2586 13.104 42.7386 13.872 42.1306 14.752C41.5226 15.632 40.8906 16.544 40.2346 17.488C39.5786 18.432 38.9386 19.352 38.3146 20.248C37.6906 21.128 37.1466 21.904 36.6826 22.576C35.8666 23.792 35.2506 24.4 34.8346 24.4ZM54.221 14.656C54.221 15.168 54.061 15.672 53.741 16.168C53.421 16.648 52.997 17.112 52.469 17.56C51.941 17.992 51.357 18.4 50.717 18.784C50.077 19.168 49.437 19.504 48.797 19.792C48.157 20.08 47.573 20.312 47.045 20.488C46.917 21.112 46.853 21.664 46.853 22.144C46.853 22.448 46.925 22.664 47.069 22.792C47.213 22.92 47.437 22.984 47.741 22.984C48.413 22.984 49.125 22.864 49.877 22.624C50.629 22.384 51.397 22.072 52.181 21.688C52.965 21.304 53.717 20.896 54.437 20.464C55.157 20.032 55.813 19.624 56.405 19.24C57.013 18.856 57.517 18.544 57.917 18.304C58.317 18.064 58.581 17.944 58.709 17.944C58.901 17.944 59.045 18.008 59.141 18.136C59.253 18.248 59.309 18.384 59.309 18.544C59.309 18.672 59.109 18.92 58.709 19.288C58.325 19.656 57.805 20.088 57.149 20.584C56.493 21.064 55.757 21.56 54.941 22.072C54.125 22.584 53.277 23.064 52.397 23.512C51.533 23.96 50.693 24.32 49.877 24.592C49.077 24.864 48.357 25 47.717 25C46.885 25 46.237 24.688 45.773 24.064C45.309 23.44 45.077 22.472 45.077 21.16C45.077 20.28 45.189 19.392 45.413 18.496C45.653 17.6 45.973 16.744 46.373 15.928C46.789 15.096 47.245 14.36 47.741 13.72C48.253 13.064 48.789 12.552 49.349 12.184C49.909 11.8 50.453 11.608 50.981 11.608C51.989 11.608 52.781 11.888 53.357 12.448C53.933 13.008 54.221 13.744 54.221 14.656ZM47.549 18.64C48.045 18.336 48.557 18.016 49.085 17.68C49.613 17.344 50.101 17 50.549 16.648C50.997 16.296 51.357 15.928 51.629 15.544C51.917 15.144 52.061 14.736 52.061 14.32C52.061 13.728 51.741 13.432 51.101 13.432C50.701 13.432 50.277 13.688 49.829 14.2C49.397 14.696 48.981 15.344 48.581 16.144C48.181 16.944 47.837 17.776 47.549 18.64ZM62.125 25.96C60.893 25.96 59.925 25.56 59.221 24.76C58.533 23.944 58.189 22.808 58.189 21.352C58.189 20.456 58.309 19.408 58.549 18.208C58.805 16.992 59.125 15.712 59.509 14.368C59.909 13.008 60.341 11.664 60.805 10.336C61.269 9.008 61.717 7.776 62.149 6.64C62.597 5.488 62.989 4.528 63.325 3.76C63.517 3.328 63.789 3.112 64.141 3.112C64.621 3.112 64.861 3.408 64.861 4C64.861 4.192 64.773 4.584 64.597 5.176C64.421 5.768 64.189 6.504 63.901 7.384C63.613 8.248 63.301 9.208 62.965 10.264C62.629 11.32 62.285 12.408 61.933 13.528C61.597 14.632 61.285 15.728 60.997 16.816C60.709 17.888 60.477 18.896 60.301 19.84C60.125 20.784 60.037 21.592 60.037 22.264C60.037 22.696 60.149 23.04 60.373 23.296C60.613 23.536 60.933 23.656 61.333 23.656C62.069 23.656 62.805 23.512 63.541 23.224C64.293 22.92 65.013 22.552 65.701 22.12C66.389 21.672 67.013 21.232 67.573 20.8C68.149 20.352 68.637 19.984 69.037 19.696C69.437 19.392 69.717 19.24 69.877 19.24C70.229 19.24 70.405 19.432 70.405 19.816C70.405 19.944 70.277 20.184 70.021 20.536C69.765 20.872 69.421 21.272 68.989 21.736C68.557 22.2 68.053 22.68 67.477 23.176C66.917 23.656 66.325 24.112 65.701 24.544C65.093 24.96 64.477 25.296 63.853 25.552C63.245 25.824 62.669 25.96 62.125 25.96ZM85.5205 9.328C85.5205 10.368 85.4565 11.472 85.3285 12.64C85.2005 13.808 84.9925 14.984 84.7045 16.168C84.4165 17.336 84.0405 18.448 83.5765 19.504C83.1285 20.544 82.5765 21.48 81.9205 22.312C81.2645 23.128 80.4965 23.776 79.6165 24.256C78.7525 24.736 77.7605 24.976 76.6405 24.976C75.1045 24.976 73.8885 24.488 72.9925 23.512C72.0965 22.536 71.6485 21.072 71.6485 19.12C71.6485 18.016 71.7605 16.936 71.9845 15.88C72.2085 14.808 72.4725 13.832 72.7765 12.952C73.0805 12.072 73.3445 11.344 73.5685 10.768C73.5045 10.64 73.4725 10.488 73.4725 10.312C73.4725 9.832 73.5845 9.384 73.8085 8.968C74.0325 8.536 74.3045 8.184 74.6245 7.912C74.9605 7.64 75.2805 7.504 75.5845 7.504C75.8245 7.504 76.0165 7.592 76.1605 7.768C76.3205 7.944 76.4005 8.216 76.4005 8.584C76.4005 8.984 76.2645 9.528 75.9925 10.216C75.7365 10.904 75.4405 11.72 75.1045 12.664C74.7685 13.592 74.4645 14.64 74.1925 15.808C73.9365 16.96 73.8085 18.2 73.8085 19.528C73.8085 20.552 74.0805 21.336 74.6245 21.88C75.1685 22.408 75.9765 22.672 77.0485 22.672C77.9285 22.672 78.6965 22.392 79.3525 21.832C80.0085 21.272 80.5605 20.512 81.0085 19.552C81.4725 18.576 81.8485 17.472 82.1365 16.24C82.4405 15.008 82.6725 13.72 82.8325 12.376C83.0085 11.032 83.1365 9.712 83.2165 8.416C83.2485 8 83.3685 7.696 83.5765 7.504C83.8005 7.296 84.0725 7.192 84.3925 7.192C84.6325 7.192 84.8325 7.24 84.9925 7.336C85.1685 7.416 85.2965 7.608 85.3765 7.912C85.4725 8.216 85.5205 8.688 85.5205 9.328ZM89.098 32.128C88.826 32.128 88.61 32.032 88.45 31.84C88.306 31.648 88.234 31.28 88.234 30.736C88.234 29.952 88.29 29.04 88.402 28C88.514 26.96 88.666 25.856 88.858 24.688C89.066 23.52 89.29 22.352 89.53 21.184C89.786 20.016 90.05 18.904 90.322 17.848C90.61 16.792 90.89 15.856 91.162 15.04C91.434 14.208 91.682 13.552 91.906 13.072C92.146 12.592 92.354 12.352 92.53 12.352C92.834 12.352 93.074 12.44 93.25 12.616C93.442 12.792 93.538 13.056 93.538 13.408C93.538 13.856 93.402 14.584 93.13 15.592C92.858 16.584 92.506 17.88 92.074 19.48C92.474 18.744 92.906 17.976 93.37 17.176C93.834 16.376 94.322 15.6 94.834 14.848C95.346 14.08 95.858 13.392 96.37 12.784C96.898 12.176 97.41 11.688 97.906 11.32C98.402 10.952 98.882 10.768 99.346 10.768C99.842 10.768 100.282 10.928 100.666 11.248C101.05 11.552 101.346 11.968 101.554 12.496C101.778 13.008 101.89 13.584 101.89 14.224C101.89 15.552 101.666 16.84 101.218 18.088C100.77 19.32 100.146 20.432 99.346 21.424C98.562 22.4 97.634 23.176 96.562 23.752C95.506 24.328 94.362 24.616 93.13 24.616C92.666 24.616 92.25 24.592 91.882 24.544C91.514 24.496 91.194 24.44 90.922 24.376C90.73 25.432 90.546 26.52 90.37 27.64C90.194 28.76 90.018 29.952 89.842 31.216C89.794 31.552 89.714 31.784 89.602 31.912C89.49 32.056 89.322 32.128 89.098 32.128ZM99.778 12.592C99.442 12.592 99.042 12.784 98.578 13.168C98.13 13.552 97.642 14.064 97.114 14.704C96.602 15.328 96.082 16.024 95.554 16.792C95.026 17.544 94.514 18.312 94.018 19.096C93.522 19.88 93.066 20.608 92.65 21.28C92.25 21.952 91.922 22.512 91.666 22.96C92.914 22.928 94.01 22.68 94.954 22.216C95.898 21.736 96.706 21.128 97.378 20.392C98.05 19.64 98.594 18.832 99.01 17.968C99.442 17.088 99.754 16.24 99.946 15.424C100.138 14.592 100.234 13.872 100.234 13.264C100.234 12.816 100.082 12.592 99.778 12.592ZM106.322 16.6C105.89 16.6 105.506 16.504 105.17 16.312C104.85 16.104 104.69 15.88 104.69 15.64C104.69 15.496 104.938 15.336 105.434 15.16C105.946 14.968 106.61 14.784 107.426 14.608C108.242 14.432 109.13 14.288 110.09 14.176C111.066 14.064 112.018 14.008 112.946 14.008C113.746 14.008 114.298 14.112 114.602 14.32C114.906 14.512 115.058 14.728 115.058 14.968C115.058 15.16 114.778 15.36 114.218 15.568C113.674 15.76 112.962 15.936 112.082 16.096C111.218 16.24 110.274 16.36 109.25 16.456C108.242 16.552 107.266 16.6 106.322 16.6ZM122.292 26.152C121.78 26.152 121.244 26.024 120.684 25.768C120.14 25.528 119.676 25.128 119.292 24.568C118.924 23.992 118.74 23.232 118.74 22.288C118.74 21.184 118.836 20.016 119.028 18.784C119.22 17.552 119.468 16.32 119.772 15.088C120.092 13.84 120.444 12.656 120.828 11.536C121.212 10.416 121.596 9.416 121.98 8.536C122.38 7.656 122.748 6.968 123.084 6.472C123.42 5.96 123.7 5.704 123.924 5.704C124.228 5.704 124.484 5.824 124.692 6.064C124.916 6.304 125.028 6.64 125.028 7.072C125.028 7.248 124.924 7.664 124.716 8.32C124.508 8.96 124.244 9.768 123.924 10.744C123.604 11.72 123.26 12.776 122.892 13.912C122.54 15.048 122.204 16.192 121.884 17.344C121.564 18.496 121.3 19.584 121.092 20.608C120.884 21.632 120.78 22.504 120.78 23.224C120.78 23.432 120.836 23.632 120.948 23.824C121.06 24 121.244 24.088 121.5 24.088C121.852 24.088 122.356 24.008 123.012 23.848C123.684 23.688 124.412 23.496 125.196 23.272C125.98 23.032 126.732 22.8 127.452 22.576C128.172 22.352 128.78 22.16 129.276 22C129.772 21.84 130.052 21.76 130.116 21.76C130.308 21.76 130.468 21.816 130.596 21.928C130.724 22.024 130.788 22.176 130.788 22.384C130.788 22.64 130.596 22.936 130.212 23.272C129.844 23.608 129.348 23.944 128.724 24.28C128.116 24.616 127.436 24.92 126.684 25.192C125.932 25.48 125.172 25.712 124.404 25.888C123.652 26.064 122.948 26.152 122.292 26.152ZM134.364 25.12C134.06 25.12 133.788 25.008 133.548 24.784C133.308 24.544 133.188 24.176 133.188 23.68C133.188 23.328 133.236 22.84 133.332 22.216C133.428 21.576 133.556 20.88 133.716 20.128C133.876 19.376 134.044 18.632 134.22 17.896C134.412 17.144 134.604 16.472 134.796 15.88C134.988 15.288 135.156 14.848 135.3 14.56C135.428 14.336 135.548 14.192 135.66 14.128C135.788 14.064 135.908 14.032 136.02 14.032C136.244 14.032 136.436 14.104 136.596 14.248C136.772 14.392 136.86 14.672 136.86 15.088C136.86 15.328 136.812 15.728 136.716 16.288C136.636 16.832 136.524 17.472 136.38 18.208C136.252 18.928 136.108 19.672 135.948 20.44C135.804 21.192 135.66 21.912 135.516 22.6C135.372 23.288 135.26 23.864 135.18 24.328C135.116 24.584 135.004 24.784 134.844 24.928C134.7 25.056 134.54 25.12 134.364 25.12ZM136.716 11.848C136.348 11.848 135.996 11.736 135.66 11.512C135.34 11.288 135.18 10.928 135.18 10.432C135.18 10.016 135.276 9.68 135.468 9.424C135.676 9.168 135.916 8.984 136.188 8.872C136.476 8.744 136.724 8.68 136.932 8.68C137.14 8.68 137.372 8.728 137.628 8.824C137.9 8.904 138.132 9.064 138.324 9.304C138.516 9.528 138.612 9.864 138.612 10.312C138.612 10.616 138.508 10.888 138.3 11.128C138.092 11.352 137.836 11.528 137.532 11.656C137.244 11.784 136.972 11.848 136.716 11.848ZM142.209 27.136C141.937 27.136 141.721 27.04 141.561 26.848C141.401 26.656 141.321 26.336 141.321 25.888C141.321 25.088 141.361 24.264 141.441 23.416C141.537 22.552 141.585 21.752 141.585 21.016C141.585 19.336 141.433 17.952 141.129 16.864C140.841 15.76 140.209 15.016 139.233 14.632C139.009 14.552 138.849 14.464 138.753 14.368C138.641 14.272 138.585 14.12 138.585 13.912C138.585 13.688 138.673 13.504 138.849 13.36C139.009 13.216 139.313 13.144 139.761 13.144C140.129 13.144 140.617 13.16 141.225 13.192C141.833 13.224 142.489 13.256 143.193 13.288C143.689 11.512 144.249 10.04 144.873 8.872C145.497 7.704 146.177 6.784 146.913 6.112C147.665 5.44 148.457 4.96 149.289 4.672C150.137 4.384 151.017 4.24 151.929 4.24C152.329 4.24 152.585 4.296 152.697 4.408C152.809 4.504 152.865 4.656 152.865 4.864C152.865 5.12 152.785 5.392 152.625 5.68C152.465 5.952 152.137 6.128 151.641 6.208C150.553 6.4 149.585 6.752 148.737 7.264C147.889 7.776 147.153 8.52 146.529 9.496C145.905 10.456 145.385 11.72 144.969 13.288C146.505 13.256 147.825 13.176 148.929 13.048C150.033 12.904 150.953 12.752 151.689 12.592C152.441 12.416 153.041 12.272 153.489 12.16C153.937 12.032 154.281 11.968 154.521 11.968C154.793 11.968 154.961 12.04 155.025 12.184C155.089 12.328 155.121 12.48 155.121 12.64C155.121 12.944 154.833 13.24 154.257 13.528C153.681 13.8 152.921 14.048 151.977 14.272C151.049 14.48 150.025 14.648 148.905 14.776C147.785 14.904 146.681 14.968 145.593 14.968C145.417 14.968 145.241 14.968 145.065 14.968C144.905 14.968 144.737 14.968 144.561 14.968C144.529 15.08 144.505 15.2 144.489 15.328C144.329 16.256 144.169 17.24 144.009 18.28C143.865 19.304 143.729 20.312 143.601 21.304C143.489 22.28 143.401 23.168 143.337 23.968C143.273 24.768 143.241 25.408 143.241 25.888C143.241 26.288 143.145 26.592 142.953 26.8C142.761 27.024 142.513 27.136 142.209 27.136ZM142.785 14.872C142.321 14.824 141.889 14.76 141.489 14.68C141.697 14.92 141.873 15.2 142.017 15.52C142.177 15.84 142.313 16.184 142.425 16.552C142.537 15.96 142.657 15.4 142.785 14.872ZM160.862 14.656C160.862 15.168 160.702 15.672 160.382 16.168C160.062 16.648 159.638 17.112 159.11 17.56C158.582 17.992 157.998 18.4 157.358 18.784C156.718 19.168 156.078 19.504 155.438 19.792C154.798 20.08 154.214 20.312 153.686 20.488C153.558 21.112 153.494 21.664 153.494 22.144C153.494 22.448 153.566 22.664 153.71 22.792C153.854 22.92 154.078 22.984 154.382 22.984C155.054 22.984 155.766 22.864 156.518 22.624C157.27 22.384 158.038 22.072 158.822 21.688C159.606 21.304 160.358 20.896 161.078 20.464C161.798 20.032 162.454 19.624 163.046 19.24C163.654 18.856 164.158 18.544 164.558 18.304C164.958 18.064 165.222 17.944 165.35 17.944C165.542 17.944 165.686 18.008 165.782 18.136C165.894 18.248 165.95 18.384 165.95 18.544C165.95 18.672 165.75 18.92 165.35 19.288C164.966 19.656 164.446 20.088 163.79 20.584C163.134 21.064 162.398 21.56 161.582 22.072C160.766 22.584 159.918 23.064 159.038 23.512C158.174 23.96 157.334 24.32 156.518 24.592C155.718 24.864 154.998 25 154.358 25C153.526 25 152.878 24.688 152.414 24.064C151.95 23.44 151.718 22.472 151.718 21.16C151.718 20.28 151.83 19.392 152.054 18.496C152.294 17.6 152.614 16.744 153.014 15.928C153.43 15.096 153.886 14.36 154.382 13.72C154.894 13.064 155.43 12.552 155.99 12.184C156.55 11.8 157.094 11.608 157.622 11.608C158.63 11.608 159.422 11.888 159.998 12.448C160.574 13.008 160.862 13.744 160.862 14.656ZM154.19 18.64C154.686 18.336 155.198 18.016 155.726 17.68C156.254 17.344 156.742 17 157.19 16.648C157.638 16.296 157.998 15.928 158.27 15.544C158.558 15.144 158.702 14.736 158.702 14.32C158.702 13.728 158.382 13.432 157.742 13.432C157.342 13.432 156.918 13.688 156.47 14.2C156.038 14.696 155.622 15.344 155.222 16.144C154.822 16.944 154.478 17.776 154.19 18.64Z" fill="white"/>
</svg>
